<svg width="16" height="16" viewBox="0 0 16 16" fill="none" xmlns="http://www.w3.org/2000/svg">
<path d="M3.65409 0.973805C3.05788 0.907169 2.44203 0.907169 1.84581 0.973805C1.39681 1.02399 1.03294 1.37739 0.979779 1.83195C0.908433 2.44196 0.908433 3.05821 0.979779 3.66823C1.03294 4.12279 1.39681 4.47619 1.84581 4.52637C2.44203 4.59301 3.05788 4.59301 3.65409 4.52637C4.10309 4.47619 4.46696 4.12279 4.52012 3.66823C4.59147 3.05821 4.59147 2.44196 4.52012 1.83195C4.46696 1.37739 4.10309 1.02399 3.65409 0.973805Z" fill="#373B4E"/>
<path d="M8.90409 0.973805C8.30787 0.907169 7.69202 0.907169 7.0958 0.973805C6.6468 1.02399 6.28294 1.37739 6.22977 1.83195C6.15843 2.44196 6.15843 3.05821 6.22977 3.66823C6.28294 4.12279 6.6468 4.47619 7.0958 4.52637C7.69202 4.59301 8.30787 4.59301 8.90409 4.52637C9.35309 4.47619 9.71695 4.12279 9.77012 3.66823C9.84146 3.05821 9.84146 2.44196 9.77012 1.83195C9.71695 1.37739 9.35309 1.02399 8.90409 0.973805Z" fill="#373B4E"/>
<path d="M14.1541 0.973805C13.5579 0.907169 12.942 0.907169 12.3458 0.973805C11.8968 1.02399 11.5329 1.37739 11.4798 1.83195C11.4084 2.44196 11.4084 3.05821 11.4798 3.66823C11.5329 4.12279 11.8968 4.47619 12.3458 4.52637C12.942 4.59301 13.5579 4.59301 14.1541 4.52637C14.6031 4.47619 14.967 4.12279 15.0201 3.66823C15.0915 3.05821 15.0915 2.44196 15.0201 1.83195C14.967 1.37739 14.6031 1.02399 14.1541 0.973805Z" fill="#373B4E"/>
<path d="M3.65409 6.22381C3.05788 6.15717 2.44203 6.15717 1.84581 6.22381C1.39681 6.27399 1.03294 6.62739 0.979779 7.08195C0.908433 7.69197 0.908433 8.30821 0.979779 8.91823C1.03294 9.37279 1.39681 9.72619 1.84581 9.77637C2.44203 9.84301 3.05788 9.84301 3.65409 9.77637C4.10309 9.72619 4.46696 9.37279 4.52012 8.91823C4.59147 8.30821 4.59147 7.69196 4.52012 7.08195C4.46696 6.62739 4.10309 6.27399 3.65409 6.22381Z" fill="#373B4E"/>
<path d="M8.90409 6.22381C8.30787 6.15717 7.69202 6.15717 7.0958 6.22381C6.6468 6.27399 6.28294 6.62739 6.22977 7.08195C6.15843 7.69197 6.15843 8.30821 6.22977 8.91823C6.28294 9.37279 6.6468 9.72619 7.0958 9.77637C7.69202 9.84301 8.30787 9.84301 8.90409 9.77637C9.35309 9.72619 9.71695 9.37279 9.77012 8.91823C9.84146 8.30821 9.84146 7.69196 9.77012 7.08195C9.71695 6.62739 9.35309 6.27399 8.90409 6.22381Z" fill="#373B4E"/>
<path d="M14.1541 6.22381C13.5579 6.15717 12.942 6.15717 12.3458 6.22381C11.8968 6.27399 11.5329 6.62739 11.4798 7.08195C11.4084 7.69197 11.4084 8.30821 11.4798 8.91823C11.5329 9.37279 11.8968 9.72619 12.3458 9.77637C12.942 9.84301 13.5579 9.84301 14.1541 9.77637C14.6031 9.72619 14.967 9.37279 15.0201 8.91823C15.0915 8.30821 15.0915 7.69196 15.0201 7.08195C14.967 6.62739 14.6031 6.27399 14.1541 6.22381Z" fill="#373B4E"/>
<path d="M3.65409 11.4738C3.05788 11.4072 2.44203 11.4072 1.84581 11.4738C1.39681 11.524 1.03294 11.8774 0.979779 12.332C0.908433 12.942 0.908433 13.5582 0.979779 14.1682C1.03294 14.6228 1.39681 14.9762 1.84581 15.0264C2.44203 15.093 3.05788 15.093 3.65409 15.0264C4.10309 14.9762 4.46696 14.6228 4.52012 14.1682C4.59147 13.5582 4.59147 12.942 4.52012 12.332C4.46696 11.8774 4.10309 11.524 3.65409 11.4738Z" fill="#373B4E"/>
<path d="M8.90409 11.4738C8.30787 11.4072 7.69202 11.4072 7.0958 11.4738C6.6468 11.524 6.28294 11.8774 6.22977 12.332C6.15843 12.942 6.15843 13.5582 6.22977 14.1682C6.28294 14.6228 6.6468 14.9762 7.0958 15.0264C7.69202 15.093 8.30787 15.093 8.90409 15.0264C9.35309 14.9762 9.71695 14.6228 9.77012 14.1682C9.84146 13.5582 9.84146 12.942 9.77012 12.332C9.71695 11.8774 9.35309 11.524 8.90409 11.4738Z" fill="#373B4E"/>
<path d="M14.1541 11.4738C13.5579 11.4072 12.942 11.4072 12.3458 11.4738C11.8968 11.524 11.5329 11.8774 11.4798 12.332C11.4084 12.942 11.4084 13.5582 11.4798 14.1682C11.5329 14.6228 11.8968 14.9762 12.3458 15.0264C12.942 15.093 13.5579 15.093 14.1541 15.0264C14.6031 14.9762 14.967 14.6228 15.0201 14.1682C15.0915 13.5582 15.0915 12.942 15.0201 12.332C14.967 11.8774 14.6031 11.524 14.1541 11.4738Z" fill="#373B4E"/>
</svg>
