<svg width="15" height="18" viewBox="0 0 15 18" fill="none" xmlns="http://www.w3.org/2000/svg">
<path fill-rule="evenodd" clip-rule="evenodd" d="M8.48903 0.911392C8.48903 0.408044 8.04623 0 7.5 0C6.95378 0 6.51097 0.408044 6.51097 0.911392V1.59494H5.95967C3.75901 1.59494 1.93761 3.17166 1.80024 5.19562L1.58166 8.41598C1.49832 9.6438 1.051 10.827 0.288396 11.8368C-0.400643 12.7491 0.212773 14.0092 1.41042 14.1416L4.78017 14.5143V15.4937C4.78017 16.8779 5.99788 18 7.5 18C9.00213 18 10.2198 16.8779 10.2198 15.4937V14.5143L13.5896 14.1416C14.7872 14.0092 15.4006 12.7491 14.7116 11.8368C13.949 10.827 13.5017 9.64381 13.4183 8.41598L13.1998 5.19561C13.0624 3.17166 11.241 1.59494 9.04033 1.59494H8.48903V0.911392ZM6.26372 15.4937C6.26372 16.1229 6.81722 16.6329 7.5 16.6329C8.18279 16.6329 8.73629 16.1229 8.73629 15.4937V14.8101H6.26372V15.4937Z" fill="#393939"/>
</svg>
