<svg width="82" height="19" viewBox="0 0 82 19" fill="none" xmlns="http://www.w3.org/2000/svg">
<g clip-path="url(#clip0_54_26)">
<path d="M6.17644 14.607C5.55158 14.607 5.02286 14.5102 4.59027 14.3166C4.15768 14.1229 3.79719 13.893 3.52081 13.6146C3.24443 13.3484 3.04015 13.0943 2.91999 12.8764C2.79982 12.6586 2.72773 12.5255 2.70369 12.5013H2.64361L2.21102 14.3529H0V0.0484009H2.64361V6.19617H2.69168C2.70369 6.14776 2.77579 6.00254 2.89596 5.7605C3.01612 5.51846 3.20838 5.26432 3.46073 4.97388C3.72509 4.68343 4.07356 4.44139 4.51817 4.22356C4.96278 4.01783 5.51553 3.90891 6.17644 3.90891C7.6905 3.90891 8.784 4.40509 9.45692 5.38534C10.1298 6.3656 10.4663 7.68471 10.4663 9.31847C10.4663 10.9159 10.1298 12.1866 9.46893 13.1548C8.80803 14.1229 7.71454 14.607 6.17644 14.607ZM5.3473 12.4287C6.03224 12.4287 6.57298 12.2834 6.94549 11.9809C7.318 11.6904 7.58236 11.2911 7.72655 10.807C7.87075 10.3229 7.94285 9.81464 7.94285 9.29426C7.94285 8.77388 7.87075 8.2777 7.71454 7.80573C7.55832 7.34585 7.29396 6.95859 6.89742 6.66815C6.50088 6.3777 5.96014 6.22038 5.27521 6.22038C4.33793 6.22038 3.66501 6.51082 3.26846 7.09171C2.87192 7.6726 2.67966 8.41082 2.67966 9.29426C2.67966 10.214 2.88394 10.9643 3.2925 11.5452C3.70106 12.1382 4.38599 12.4287 5.3473 12.4287Z" fill="#393939"/>
<path d="M15.4171 14.607C14.5039 14.607 13.8069 14.4255 13.3022 14.0745C12.7975 13.7236 12.437 13.2637 12.2087 12.707C11.9804 12.1503 11.8482 11.5573 11.7882 10.9401C11.7401 10.3229 11.7161 9.75413 11.7161 9.24585V3.90891H14.2155V9.24585C14.2155 9.76623 14.2635 10.2745 14.3717 10.7465C14.4678 11.2185 14.6841 11.6057 15.0206 11.8962C15.345 12.1866 15.8497 12.3318 16.5226 12.3318C17.1835 12.3318 17.6762 12.1866 18.0127 11.8841C18.3491 11.5815 18.5774 11.2064 18.6976 10.7586C18.8178 10.2987 18.8778 9.82674 18.9019 9.33056L18.9259 3.92101H21.5455V14.365H19.3465L18.9139 12.4165L18.8658 12.3802C18.8298 12.4771 18.7457 12.6465 18.6135 12.8885C18.4813 13.1306 18.277 13.3847 18.0247 13.6509C17.7603 13.9172 17.4239 14.1471 17.0033 14.3408C16.5587 14.5102 16.042 14.607 15.4171 14.607Z" fill="#393939"/>
<path d="M24.6457 2.77132C24.0929 2.77132 23.7204 2.6382 23.5522 2.35986C23.372 2.09362 23.2878 1.75476 23.2878 1.3675C23.2878 0.992343 23.384 0.677693 23.5642 0.399349C23.7445 0.133107 24.105 -0.0121155 24.6457 -0.0121155C25.1624 -0.0121155 25.5109 0.121006 25.6911 0.399349C25.8714 0.665592 25.9555 0.992343 25.9555 1.3675C25.9555 1.75476 25.8714 2.09362 25.6911 2.35986C25.5229 2.6382 25.1744 2.77132 24.6457 2.77132ZM23.3359 14.3529V3.9089H25.9074V14.3529H23.3359Z" fill="#393939"/>
<path d="M27.926 14.3529V0.0484009H30.4495V14.3529H27.926V14.3529Z" fill="#393939"/>
<path d="M34.9919 19V16.5554H39.5341V12.4891H39.486C39.474 12.5255 39.4019 12.6465 39.2697 12.8643C39.1495 13.0821 38.9453 13.3363 38.6809 13.6025C38.4165 13.8688 38.0681 14.1108 37.6355 14.3044C37.2029 14.4981 36.6741 14.5949 36.0373 14.5949C34.5112 14.5949 33.4057 14.0987 32.7328 13.1184C32.0598 12.1382 31.7234 10.8554 31.7234 9.28214C31.7234 7.63628 32.0598 6.32927 32.7448 5.36112C33.4297 4.39297 34.5232 3.89679 36.0373 3.89679C36.7102 3.89679 37.263 4.00571 37.7076 4.21144C38.1402 4.42927 38.4886 4.67131 38.741 4.96176C38.9933 5.2522 39.1736 5.50634 39.2817 5.74838C39.3899 5.99042 39.4499 6.12354 39.474 6.18405H39.522L39.5461 3.89679H42.1897V15.2484C42.1897 16.6401 41.9133 17.6083 41.3726 18.1649C40.8318 18.7216 39.9787 19 38.8371 19H34.9919ZM36.8304 12.4286C37.7676 12.4286 38.4526 12.1382 38.8732 11.5573C39.2937 10.9764 39.498 10.2261 39.498 9.30634C39.498 8.4229 39.2937 7.69679 38.8972 7.1038C38.4886 6.5229 37.8157 6.23246 36.8784 6.23246C36.1935 6.23246 35.6528 6.37768 35.2682 6.68023C34.8837 6.98278 34.6073 7.35794 34.4511 7.81781C34.2949 8.28978 34.2108 8.77386 34.2108 9.30634C34.2108 9.82673 34.2829 10.335 34.4271 10.8191C34.5713 11.3032 34.8356 11.6904 35.2081 11.993C35.5807 12.2713 36.1214 12.4286 36.8304 12.4286Z" fill="#393939"/>
<path d="M48.4141 14.607C47.2244 14.607 46.2511 14.3528 45.5061 13.8325C44.7611 13.3121 44.2083 12.6586 43.8358 11.8478C43.4753 11.049 43.2831 10.1898 43.271 9.29425C43.259 8.24138 43.4513 7.30953 43.8598 6.48661C44.2684 5.66368 44.8572 5.02227 45.6263 4.5503C46.3953 4.09043 47.2965 3.84839 48.342 3.84839C49.2672 3.84839 50.0964 4.05412 50.8294 4.45348C51.5624 4.86495 52.1512 5.43374 52.5838 6.17196C53.0163 6.91017 53.2447 7.78151 53.2687 8.77387C53.2687 8.81017 53.2687 9.0038 53.2687 9.35476H45.7224C45.7224 10.3713 45.9627 11.1337 46.4314 11.6541C46.9 12.1745 47.5489 12.4286 48.378 12.4286C49.0149 12.4286 49.5556 12.2713 49.9762 11.9446C50.4088 11.6178 50.6611 11.1942 50.7452 10.6739H53.2326C53.1125 11.7751 52.6438 12.707 51.8147 13.4573C50.9976 14.2318 49.856 14.607 48.4141 14.607ZM45.7825 8.27769H50.6731C50.6611 8.15667 50.6131 7.97514 50.565 7.721C50.5049 7.46686 50.3968 7.20062 50.2406 6.93438C50.0843 6.66813 49.844 6.4382 49.5196 6.24457C49.1951 6.06304 48.7866 5.96622 48.2819 5.96622C47.609 5.96622 47.1043 6.11145 46.7558 6.38979C46.4073 6.66813 46.167 6.99489 46.0228 7.35794C45.8906 7.721 45.8065 8.02355 45.7825 8.27769Z" fill="#393939"/>
<path d="M54.843 14.3529V3.90891H57.2343L57.4145 6.80126C57.5107 6.36559 57.7149 5.91782 58.0033 5.47005C58.2917 5.02228 58.7123 4.64712 59.241 4.35668C59.7697 4.06623 60.4547 3.90891 61.2958 3.90891H61.6683V6.80126H61.2958C59.8539 6.80126 58.8445 7.0312 58.2677 7.50317C57.6909 7.97515 57.4145 8.74967 57.4145 9.85094V14.3529H54.843Z" fill="#393939"/>
<path d="M66.4268 14.3529H64.4321C63.675 14.3529 63.0742 13.7357 63.0742 12.9854V10.9764C63.0742 10.214 63.6871 9.60892 64.4321 9.60892H66.4268C67.1838 9.60892 67.7846 10.2261 67.7846 10.9764V12.9854C67.7967 13.7357 67.1838 14.3529 66.4268 14.3529Z" fill="#5DC7E9"/>
<path d="M72.1106 14.3529H70.1159C69.3589 14.3529 68.7581 13.7357 68.7581 12.9854V10.9764C68.7581 10.214 69.3709 9.60892 70.1159 9.60892H72.1106C72.8677 9.60892 73.4685 10.2261 73.4685 10.9764V12.9854C73.4685 13.7357 72.8677 14.3529 72.1106 14.3529Z" fill="#5DC7E9"/>
<path d="M77.7942 14.3529H75.7995C75.0425 14.3529 74.4417 13.7357 74.4417 12.9854V10.9764C74.4417 10.214 75.0545 9.60892 75.7995 9.60892H77.7942C78.5513 9.60892 79.1521 10.2261 79.1521 10.9764V12.9854C79.1521 13.7357 78.5513 14.3529 77.7942 14.3529Z" fill="#5DC7E9"/>
<path d="M69.2747 8.66497H67.28C66.5229 8.66497 65.9221 8.04777 65.9221 7.29745V5.28854C65.9221 4.52612 66.535 3.92102 67.28 3.92102H69.2747C70.0317 3.92102 70.6326 4.53822 70.6326 5.28854V7.29745C70.6326 8.04777 70.0197 8.66497 69.2747 8.66497Z" fill="#5DC7E9"/>
<path d="M74.9585 8.66497H72.9638C72.2068 8.66497 71.606 8.04777 71.606 7.29745V5.28854C71.606 4.52612 72.2188 3.92102 72.9638 3.92102H74.9585C75.7156 3.92102 76.3164 4.53822 76.3164 5.28854V7.29745C76.3164 8.04777 75.7035 8.66497 74.9585 8.66497Z" fill="#5DC7E9"/>
<path d="M80.6302 8.66497H78.6354C77.8784 8.66497 77.2776 8.04777 77.2776 7.29745V5.28854C77.2776 4.52612 77.8904 3.92102 78.6354 3.92102H80.6302C81.3872 3.92102 81.988 4.53822 81.988 5.28854V7.29745C82 8.04777 81.3872 8.66497 80.6302 8.66497Z" fill="#5DC7E9"/>
</g>
<defs>
<clipPath id="clip0_54_26">
<rect width="82" height="19" fill="white"/>
</clipPath>
</defs>
</svg>
