<svg width="16" height="11" viewBox="0 0 16 11" fill="none" xmlns="http://www.w3.org/2000/svg">
<rect x="2.66663" y="4.896" width="6.66667" height="1.33333" rx="0.666667" fill="#373B4E"/>
<circle cx="0.666667" cy="1.56266" r="0.666667" fill="#373B4E"/>
<circle cx="0.666667" cy="5.56266" r="0.666667" fill="#373B4E"/>
<circle cx="0.666667" cy="9.56266" r="0.666667" fill="#373B4E"/>
<rect x="2.66663" y="0.895996" width="8" height="1.33333" rx="0.666667" fill="#373B4E"/>
<rect x="2.66663" y="8.896" width="5.33333" height="1.33333" rx="0.666667" fill="#373B4E"/>
<path d="M12.6667 2.22949C11.7462 2.22949 11 2.98354 11 3.9137C11 4.84387 11.7462 5.59791 12.6667 5.59791C13.5872 5.59791 14.3334 4.84387 14.3334 3.9137C14.3334 2.98354 13.5872 2.22949 12.6667 2.22949Z" fill="#373B4E"/>
<path d="M9.33337 9.38739C9.33337 7.99214 10.4527 6.86107 11.8334 6.86107H13.5C14.8808 6.86107 16 7.99214 16 9.38739C16 9.85247 15.6269 10.2295 15.1667 10.2295H10.1667C9.70647 10.2295 9.33337 9.85247 9.33337 9.38739Z" fill="#373B4E"/>
</svg>
