<svg width="12" height="12" viewBox="0 0 12 12" fill="none" xmlns="http://www.w3.org/2000/svg">
<path d="M6.78261 0.782609C6.78261 0.350386 6.43222 0 6 0C5.56778 0 5.21739 0.350386 5.21739 0.782609V5.21739H0.782609C0.350386 5.21739 0 5.56778 0 6C0 6.43222 0.350386 6.78261 0.782609 6.78261H5.21739V11.2174C5.21739 11.6496 5.56778 12 6 12C6.43222 12 6.78261 11.6496 6.78261 11.2174V6.78261H11.2174C11.6496 6.78261 12 6.43222 12 6C12 5.56778 11.6496 5.21739 11.2174 5.21739H6.78261V0.782609Z" fill="white"/>
</svg>
