<svg width="14" height="14" viewBox="0 0 14 14" fill="none" xmlns="http://www.w3.org/2000/svg">
<path fill-rule="evenodd" clip-rule="evenodd" d="M8.7888 9.58429C6.8011 11.1763 3.89152 11.051 2.04893 9.20839C0.0719048 7.23136 0.0719048 4.02596 2.04893 2.04893C4.02596 0.0719047 7.23136 0.071905 9.20839 2.04893C11.051 3.89152 11.1763 6.80109 9.58429 8.78879L13.451 12.6555C13.6707 12.8752 13.6707 13.2313 13.451 13.451C13.2313 13.6707 12.8752 13.6707 12.6555 13.451L8.7888 9.58429ZM2.84443 8.4129C1.30674 6.87521 1.30674 4.38212 2.84443 2.84443C4.38212 1.30674 6.87521 1.30674 8.4129 2.84443C9.94946 4.38099 9.95058 6.87155 8.41628 8.40951C8.41514 8.41062 8.41401 8.41175 8.41288 8.41288C8.41175 8.414 8.41063 8.41514 8.40951 8.41627C6.87155 9.95058 4.38099 9.94946 2.84443 8.4129Z" fill="#393939"/>
</svg>
