<svg width="10" height="14" viewBox="0 0 10 14" fill="none" xmlns="http://www.w3.org/2000/svg">
<path d="M3.70968 0C3.44244 0 3.22581 0.232222 3.22581 0.518682V1.03736H0.483871C0.216636 1.03736 0 1.26959 0 1.55605C0 1.84251 0.216636 2.07473 0.483871 2.07473H9.51613C9.78336 2.07473 10 1.84251 10 1.55605C10 1.26959 9.78336 1.03736 9.51613 1.03736H6.77419V0.518682C6.77419 0.232222 6.55756 0 6.29032 0H3.70968Z" fill="#5F6271"/>
<path d="M3.70968 5.80923C3.97691 5.80923 4.19355 6.04146 4.19355 6.32792L4.19355 11.1689C4.19355 11.4554 3.97691 11.6876 3.70968 11.6876C3.44244 11.6876 3.22581 11.4554 3.22581 11.1689L3.22581 6.32792C3.22581 6.04146 3.44244 5.80923 3.70968 5.80923Z" fill="#5F6271"/>
<path d="M6.77419 6.32792C6.77419 6.04146 6.55756 5.80923 6.29032 5.80923C6.02309 5.80923 5.80645 6.04146 5.80645 6.32792V11.1689C5.80645 11.4554 6.02309 11.6876 6.29032 11.6876C6.55756 11.6876 6.77419 11.4554 6.77419 11.1689V6.32792Z" fill="#5F6271"/>
<path fill-rule="evenodd" clip-rule="evenodd" d="M1.1235 3.91928C1.15073 3.65661 1.35786 3.45788 1.60441 3.45788H8.39558C8.64214 3.45788 8.84927 3.65661 8.87649 3.91928L9.00562 5.16505C9.2397 7.42327 9.2397 9.70234 9.00562 11.9606L8.99291 12.0832C8.9 12.9796 8.2519 13.6943 7.41865 13.8194C5.81404 14.0602 4.18595 14.0602 2.58134 13.8194C1.74809 13.6943 1.1 12.9796 1.00708 12.0832L0.994371 11.9606C0.760298 9.70234 0.760298 7.42327 0.994371 5.16505L1.1235 3.91928ZM2.0375 4.49524L1.95619 5.27961C1.73001 7.46169 1.73001 9.66392 1.95619 11.846L1.96891 11.9686C2.01297 12.3938 2.32034 12.7327 2.71552 12.792C4.23111 13.0195 5.76888 13.0195 7.28448 12.792C7.67966 12.7327 7.98702 12.3938 8.03109 11.9686L8.0438 11.846C8.26998 9.66392 8.26998 7.46169 8.0438 5.27961L7.9625 4.49524H2.0375Z" fill="#5F6271"/>
</svg>
