<svg width="18" height="15" viewBox="0 0 18 15" fill="none" xmlns="http://www.w3.org/2000/svg">
<path fill-rule="evenodd" clip-rule="evenodd" d="M5.00194 0.552712C7.69826 0.349492 10.4065 0.362825 13.1007 0.592585L14.7245 0.731057C15.951 0.835653 16.9464 1.76647 17.1329 2.98322L17.2353 3.65154C17.5829 5.91945 17.5505 8.22942 17.1392 10.4867C16.9362 11.6004 15.9661 12.4098 14.834 12.4098H5.85756C5.65104 12.4098 5.44774 12.461 5.26583 12.5587L1.35504 14.6604C1.12261 14.7854 0.841631 14.7789 0.615148 14.6435C0.388666 14.5081 0.25 14.2637 0.25 13.9998V5.4825C0.25 2.9039 2.23741 0.761074 4.80871 0.567276L5.00194 0.552712ZM5 5.4998C4.30964 5.4998 3.75 6.05945 3.75 6.7498C3.75 7.44016 4.30964 7.9998 5 7.9998C5.69036 7.9998 6.25 7.44016 6.25 6.7498C6.25 6.05945 5.69036 5.4998 5 5.4998ZM9 5.4998C8.30964 5.4998 7.75 6.05945 7.75 6.7498C7.75 7.44016 8.30964 7.9998 9 7.9998C9.69036 7.9998 10.25 7.44016 10.25 6.7498C10.25 6.05945 9.69036 5.4998 9 5.4998ZM11.75 6.7498C11.75 6.05945 12.3096 5.4998 13 5.4998C13.6904 5.4998 14.25 6.05945 14.25 6.7498C14.25 7.44016 13.6904 7.9998 13 7.9998C12.3096 7.9998 11.75 7.44016 11.75 6.7498Z" fill="#5F6271"/>
</svg>
