<svg width="16" height="16" viewBox="0 0 16 16" fill="none" xmlns="http://www.w3.org/2000/svg">
<path d="M8 0C5.86212 0 4.12903 1.63012 4.12903 3.64099C4.12903 5.65185 5.86212 7.28197 8 7.28197C10.1379 7.28197 11.871 5.65185 11.871 3.64099C11.871 1.63012 10.1379 0 8 0Z" fill="#5F6271"/>
<path d="M3.87097 9.22383C1.73309 9.22383 0 10.854 0 12.8648V14.0186C0 14.7499 0.563493 15.3735 1.33086 15.4913C5.74771 16.1696 10.2523 16.1696 14.6691 15.4913C15.4365 15.3735 16 14.7499 16 14.0186V12.8648C16 10.854 14.2669 9.22383 12.129 9.22383H11.7772C11.5867 9.22383 11.3975 9.25216 11.2164 9.30776L10.323 9.58216C8.81355 10.0458 7.18645 10.0458 5.67699 9.58216L4.78356 9.30776C4.60252 9.25216 4.41328 9.22383 4.22283 9.22383H3.87097Z" fill="#5F6271"/>
</svg>
