<svg width="14" height="20" viewBox="0 0 14 20" fill="none" xmlns="http://www.w3.org/2000/svg">
<path fill-rule="evenodd" clip-rule="evenodd" d="M7 20C3.13401 20 0 16.9004 0 13.0769L0 4.87179C0 2.18118 2.20541 -7.15256e-07 4.92593 -7.15256e-07C7.64644 -7.15256e-07 9.85185 2.18118 9.85185 4.8718V13.2234C9.85185 14.7812 8.57503 16.044 7 16.044C5.42497 16.044 4.14815 14.7812 4.14815 13.2234L4.14815 5.16483C4.14815 4.74 4.49637 4.3956 4.92593 4.3956C5.35548 4.3956 5.7037 4.74 5.7037 5.16483L5.7037 13.2234C5.7037 13.9315 6.28408 14.5055 7 14.5055C7.71592 14.5055 8.2963 13.9315 8.2963 13.2234V4.8718C8.2963 3.03085 6.78733 1.53846 4.92593 1.53846C3.06452 1.53846 1.55556 3.03084 1.55556 4.87179L1.55556 13.0769C1.55556 16.0508 3.99312 18.4615 7 18.4615C10.0069 18.4615 12.4444 16.0508 12.4444 13.0769V5.16483C12.4444 4.74 12.7927 4.3956 13.2222 4.3956C13.6518 4.3956 14 4.74 14 5.16483V13.0769C14 16.9004 10.866 20 7 20Z" fill="#5F6271"/>
</svg>
