<svg width="18" height="18" viewBox="0 0 18 18" fill="none" xmlns="http://www.w3.org/2000/svg">
<path d="M9 7.71429C9.42605 7.71429 9.77143 8.05967 9.77143 8.48571V13.6286C9.77143 14.0546 9.42605 14.4 9 14.4C8.57395 14.4 8.22857 14.0546 8.22857 13.6286V8.48571C8.22857 8.05967 8.57395 7.71429 9 7.71429Z" fill="#5F6271"/>
<path d="M9 5.91429C9.56806 5.91429 10.0286 5.45378 10.0286 4.88571C10.0286 4.31765 9.56806 3.85714 9 3.85714C8.43194 3.85714 7.97143 4.31765 7.97143 4.88571C7.97143 5.45378 8.43194 5.91429 9 5.91429Z" fill="#5F6271"/>
<path fill-rule="evenodd" clip-rule="evenodd" d="M0 9C0 4.02944 4.02944 0 9 0C13.9706 0 18 4.02944 18 9C18 13.9706 13.9706 18 9 18C4.02944 18 0 13.9706 0 9ZM9 1.54286C4.88153 1.54286 1.54286 4.88153 1.54286 9C1.54286 13.1185 4.88153 16.4571 9 16.4571C13.1185 16.4571 16.4571 13.1185 16.4571 9C16.4571 4.88153 13.1185 1.54286 9 1.54286Z" fill="#5F6271"/>
</svg>
