<svg width="18" height="19" viewBox="0 0 18 19" fill="none" xmlns="http://www.w3.org/2000/svg">
<path d="M13.4321 1.07835C12.8068 0.453034 11.7477 0.657008 11.3993 1.46984L9.63992 5.57507C8.19444 5.14679 6.56525 5.50284 5.42364 6.64446L4.0671 8.001C3.7742 8.29389 3.7742 8.76876 4.0671 9.06166L6.20887 11.2034L0.46967 16.9426C0.176777 17.2355 0.176777 17.7104 0.46967 18.0033C0.762563 18.2962 1.23744 18.2962 1.53033 18.0033L7.26953 12.2641L9.41135 14.4059C9.70424 14.6988 10.1791 14.6988 10.472 14.4059L11.8285 13.0494C12.9702 11.9078 13.3262 10.2786 12.8979 8.83307L17.0032 7.07368C17.816 6.72533 18.02 5.66619 17.3946 5.04087L13.4321 1.07835Z" fill="#5F6271"/>
</svg>
