<svg width="14" height="12" viewBox="0 0 14 12" fill="none" xmlns="http://www.w3.org/2000/svg">
<path d="M5.68703 0.199951C4.32756 0.199951 3.22549 1.34104 3.22549 2.74864C3.22549 4.15624 4.32756 5.29733 5.68703 5.29733C7.0465 5.29733 8.14857 4.15624 8.14857 2.74864C8.14857 1.34104 7.0465 0.199951 5.68703 0.199951Z" fill="#B3B3B3"/>
<path d="M3.06139 6.65663C1.70192 6.65663 0.599854 7.79772 0.599854 9.20532V10.0129C0.599854 10.5249 0.958177 10.9614 1.44614 11.0439C4.25481 11.5187 7.11926 11.5187 9.92792 11.0439C10.4159 10.9614 10.7742 10.5249 10.7742 10.0129V9.20532C10.7742 7.79772 9.67214 6.65663 8.31267 6.65663H8.08892C7.96782 6.65663 7.84748 6.67646 7.73236 6.71538L7.16423 6.90746C6.20437 7.23198 5.1697 7.23198 4.20984 6.90746L3.64171 6.71538C3.52659 6.67646 3.40624 6.65663 3.28514 6.65663H3.06139Z" fill="#B3B3B3"/>
<path d="M11.2665 1.89908C11.5384 1.89908 11.7588 2.1273 11.7588 2.40882V3.5982H12.9075C13.1794 3.5982 13.3999 3.82642 13.3999 4.10794C13.3999 4.38946 13.1794 4.61768 12.9075 4.61768H11.7588V5.80707C11.7588 6.08859 11.5384 6.31681 11.2665 6.31681C10.9946 6.31681 10.7742 6.08859 10.7742 5.80707V4.61768H9.62549C9.3536 4.61768 9.13319 4.38946 9.13319 4.10794C9.13319 3.82642 9.3536 3.5982 9.62549 3.5982H10.7742V2.40882C10.7742 2.1273 10.9946 1.89908 11.2665 1.89908Z" fill="#B3B3B3"/>
</svg>
