<svg width="7" height="13" viewBox="0 0 7 13" fill="none" xmlns="http://www.w3.org/2000/svg">
<path d="M4.9413 0.0905975C3.84609 -0.0302018 2.74028 -0.0302017 1.64507 0.0905976L0.510959 0.215688C0.343201 0.234191 0.212025 0.364501 0.1971 0.527476L0.109926 1.47937C-0.036642 3.07982 -0.0366421 4.68971 0.109926 6.29016L0.1971 7.24206C0.213377 7.41979 0.367025 7.55605 0.551156 7.55605H2.02373V12.6555C2.02373 12.8019 2.11914 12.9322 2.26165 12.9806C2.40417 13.029 2.56267 12.9848 2.65691 12.8705L2.93465 12.5335C4.59062 10.5244 5.90924 8.27472 6.84193 5.86747L6.97732 5.51804C7.0183 5.41225 7.00314 5.29372 6.93674 5.20083C6.87034 5.10794 6.76116 5.05252 6.64455 5.05252H4.71583L6.369 0.676331C6.40647 0.577148 6.3949 0.466789 6.33763 0.376927C6.28036 0.287064 6.1837 0.227632 6.07541 0.215688L4.9413 0.0905975Z" fill="white"/>
</svg>
