<svg width="12" height="13" viewBox="0 0 12 13" fill="none" xmlns="http://www.w3.org/2000/svg">
<path d="M4.83333 0.963809C4.55719 0.963809 4.33333 0.748053 4.33333 0.481904C4.33333 0.215756 4.55719 0 4.83333 0H7.19035C7.46649 0 7.69035 0.215756 7.69035 0.481904C7.69035 0.748053 7.46649 0.963809 7.19035 0.963809H4.83333Z" fill="white"/>
<path d="M2.52022 1.25417C2.71548 1.44237 2.71548 1.74749 2.52022 1.93569L0.853553 3.54204C0.658291 3.73023 0.341709 3.73023 0.146447 3.54204C-0.0488155 3.35384 -0.0488155 3.04872 0.146447 2.86052L1.81311 1.25417C2.00838 1.06598 2.32496 1.06598 2.52022 1.25417Z" fill="white"/>
<path d="M6.16667 2.71938C3.49729 2.71938 1.33333 4.80502 1.33333 7.37778C1.33333 9.95055 3.49729 12.0362 6.16667 12.0362C8.83604 12.0362 11 9.95055 11 7.37778C11 7.11164 11.2239 6.89588 11.5 6.89588C11.7761 6.89588 12 7.11164 12 7.37778C12 10.4828 9.38833 13 6.16667 13C2.94501 13 0.333333 10.4828 0.333333 7.37778C0.333333 4.27272 2.94501 1.75557 6.16667 1.75557C6.44281 1.75557 6.66667 1.97132 6.66667 2.23747C6.66667 2.50362 6.44281 2.71938 6.16667 2.71938Z" fill="white"/>
<path d="M9.62547 4.39914C9.78028 4.2073 9.76265 3.93437 9.58435 3.76252C9.40604 3.59067 9.12287 3.57368 8.92382 3.72289L6.81055 5.30705L5.42961 6.25775C5.13463 6.46082 4.95956 6.7887 4.95956 7.13808C4.95956 7.73557 5.46211 8.21993 6.08203 8.21993C6.44454 8.21993 6.78472 8.0512 6.99543 7.76689L7.98182 6.43593L9.62547 4.39914Z" fill="white"/>
</svg>
