<svg width="12" height="12" viewBox="0 0 12 12" fill="none" xmlns="http://www.w3.org/2000/svg">
<path fill-rule="evenodd" clip-rule="evenodd" d="M6 1.62162C3.40277 1.62162 1.2973 3.72709 1.2973 6.32432C1.2973 8.92155 3.40277 11.027 6 11.027C8.59723 11.027 10.7027 8.92155 10.7027 6.32432C10.7027 3.72709 8.59723 1.62162 6 1.62162ZM0.324324 6.32432C0.324324 3.18973 2.86541 0.648649 6 0.648649C9.13459 0.648649 11.6757 3.18973 11.6757 6.32432C11.6757 9.45891 9.13459 12 6 12C2.86541 12 0.324324 9.45891 0.324324 6.32432Z" fill="white"/>
<path fill-rule="evenodd" clip-rule="evenodd" d="M6 2.59459C6.26868 2.59459 6.48649 2.8124 6.48649 3.08108V6.05469L8.20378 7.128C8.43162 7.2704 8.50089 7.57054 8.35849 7.79838C8.21609 8.02622 7.91595 8.09548 7.68811 7.95308L5.74216 6.73686C5.59992 6.64796 5.51351 6.49206 5.51351 6.32432V3.08108C5.51351 2.8124 5.73132 2.59459 6 2.59459Z" fill="white"/>
<path fill-rule="evenodd" clip-rule="evenodd" d="M2.45211 0.142489C2.64209 0.332473 2.64209 0.6405 2.45211 0.830484L0.830484 2.45211C0.6405 2.64209 0.332473 2.64209 0.142489 2.45211C-0.0474962 2.26212 -0.0474962 1.95409 0.142489 1.76411L1.76411 0.142489C1.95409 -0.0474962 2.26212 -0.0474962 2.45211 0.142489Z" fill="white"/>
<path fill-rule="evenodd" clip-rule="evenodd" d="M9.54789 0.142489C9.35791 0.332473 9.35791 0.6405 9.54789 0.830484L11.1695 2.45211C11.3595 2.64209 11.6675 2.64209 11.8575 2.45211C12.0475 2.26212 12.0475 1.95409 11.8575 1.76411L10.2359 0.142489C10.0459 -0.0474962 9.73788 -0.0474962 9.54789 0.142489Z" fill="white"/>
</svg>
