<svg width="12" height="12" viewBox="0 0 12 12" fill="none" xmlns="http://www.w3.org/2000/svg">
<path d="M6.00001 5.11661C6.29322 5.11661 6.5309 5.35392 6.5309 5.64665V9.18019C6.5309 9.47292 6.29322 9.71022 6.00001 9.71022C5.70681 9.71022 5.46912 9.47292 5.46912 9.18019V5.64665C5.46912 5.35392 5.70681 5.11661 6.00001 5.11661Z" fill="white"/>
<path d="M6.00001 3.87987C6.39095 3.87987 6.70787 3.56347 6.70787 3.17316C6.70787 2.78286 6.39095 2.46645 6.00001 2.46645C5.60907 2.46645 5.29216 2.78286 5.29216 3.17316C5.29216 3.56347 5.60907 3.87987 6.00001 3.87987Z" fill="white"/>
<path fill-rule="evenodd" clip-rule="evenodd" d="M2.68493 0.182903C4.87048 -0.0609677 7.12952 -0.0609677 9.31507 0.182903C10.6079 0.32716 11.6519 1.34386 11.804 2.64206C12.0653 4.87308 12.0653 7.12692 11.804 9.35794C11.6519 10.6561 10.6079 11.6728 9.31507 11.8171C7.12952 12.061 4.87048 12.061 2.68493 11.8171C1.39212 11.6728 0.348104 10.6561 0.196022 9.35794C-0.0653405 7.12692 -0.0653405 4.87308 0.196022 2.64206C0.348104 1.34386 1.39212 0.32716 2.68493 0.182903ZM9.19713 1.23641C7.08997 1.00128 4.91003 1.00128 2.80287 1.23641C1.99278 1.3268 1.34434 1.96513 1.25062 2.7652C0.99884 4.91441 0.99884 7.08559 1.25062 9.2348C1.34434 10.0349 1.99278 10.6732 2.80287 10.7636C4.91003 10.9987 7.08997 10.9987 9.19713 10.7636C10.0072 10.6732 10.6557 10.0349 10.7494 9.2348C11.0012 7.08559 11.0012 4.91441 10.7494 2.7652C10.6557 1.96513 10.0072 1.3268 9.19713 1.23641Z" fill="white"/>
</svg>
