<svg width="16" height="16" viewBox="0 0 16 16" fill="none" xmlns="http://www.w3.org/2000/svg">
<path d="M14.7764 2.99131C15.2646 2.50315 15.2646 1.71169 14.7764 1.22354C14.2883 0.735383 13.4968 0.735383 13.0087 1.22354L7.99999 6.2322L2.99132 1.22354C2.50317 0.735384 1.71171 0.735384 1.22355 1.22354C0.735399 1.71169 0.735399 2.50315 1.22355 2.99131L6.23222 7.99997L1.22354 13.0087C0.735383 13.4968 0.735383 14.2883 1.22354 14.7764C1.71169 15.2646 2.50315 15.2646 2.99131 14.7764L7.99999 9.76774L13.0087 14.7764C13.4968 15.2646 14.2883 15.2646 14.7764 14.7764C15.2646 14.2883 15.2646 13.4968 14.7764 13.0087L9.76775 7.99997L14.7764 2.99131Z" fill="#373B4E"/>
</svg>
