<svg width="20" height="20" viewBox="0 0 20 20" fill="none" xmlns="http://www.w3.org/2000/svg">
<path d="M9.12516 18.1666C9.12516 17.6834 9.51691 17.2916 10.0002 17.2916H17.0002C17.1612 17.2916 17.2918 17.1611 17.2918 17V2.99998C17.2918 2.8389 17.1612 2.70831 17.0002 2.70831L10.0002 2.70831C9.51691 2.70831 9.12516 2.31656 9.12516 1.83331C9.12516 1.35007 9.51691 0.958313 10.0002 0.958313H17.0002C18.1277 0.958313 19.0418 1.8724 19.0418 2.99998V17C19.0418 18.1276 18.1277 19.0416 17.0002 19.0416H10.0002C9.51691 19.0416 9.12516 18.6499 9.12516 18.1666Z" fill="white"/>
<path d="M0.0834961 11.3011C0.0834961 11.9454 0.60583 12.4677 1.25016 12.4677H6.91548C6.94223 12.8824 6.97572 13.2967 7.01594 13.7106L7.05055 14.0666C7.10682 14.6456 7.72161 14.9923 8.24616 14.7409C10.3787 13.7189 12.3093 12.3203 13.945 10.6125L13.98 10.576C14.2916 10.2506 14.2916 9.73755 13.98 9.4122L13.945 9.3757C12.3093 7.66785 10.3787 6.26929 8.24616 5.24727C7.72161 4.99588 7.10682 5.3426 7.05055 5.92155L7.01595 6.27761C6.97572 6.69146 6.94223 7.1058 6.91548 7.52047L1.25016 7.52047C0.605832 7.52047 0.0834961 8.0428 0.0834961 8.68714V11.3011Z" fill="white"/>
</svg>
